<?xml version="1.0" encoding="utf-8"?>
<!-- Generator: Adobe Illustrator 15.1.0, SVG Export Plug-In . SVG Version: 6.00 Build 0)  -->
<!DOCTYPE svg PUBLIC "-//W3C//DTD SVG 1.1//EN" "http://www.w3.org/Graphics/SVG/1.1/DTD/svg11.dtd">
<svg version="1.1" id="Capa_1" xmlns="http://www.w3.org/2000/svg" xmlns:xlink="http://www.w3.org/1999/xlink" x="0px" y="0px"
	 width="841.889px" height="1190.551px" viewBox="0 0 841.889 1190.551" enable-background="new 0 0 841.889 1190.551"
	 xml:space="preserve">
<path fill="#21C2A8" d="M559.803,578.816L384.987,451.738c-6.415-4.65-14.932-5.351-21.964-1.736
	c-7.088,3.586-11.515,10.87-11.515,18.742v254.071c0,7.956,4.427,15.212,11.515,18.798c2.998,1.513,6.275,2.27,9.581,2.27
	c4.314,0,8.686-1.373,12.383-4.09l174.816-126.966c5.519-4.063,8.74-10.338,8.74-17.006
	C568.572,589.042,565.266,582.795,559.803,578.816z"/>
<path fill="#21C2A8" d="M420.958,174.386C188.431,174.386,0,362.817,0,595.345c0,232.443,188.431,420.818,420.958,420.818
	c232.472,0,420.931-188.403,420.931-420.818C841.917,362.817,653.43,174.386,420.958,174.386z M420.958,945.929
	c-193.642,0-350.64-156.914-350.64-350.584c0-193.586,156.998-350.697,350.64-350.697c193.614,0,350.585,157.083,350.585,350.697
	C771.571,789.015,614.573,945.929,420.958,945.929z"/>
</svg>
